<svg width="116" height="97" viewBox="0 0 116 97" fill="none" xmlns="http://www.w3.org/2000/svg">
<path d="M74.3965 29.8477L42.5177 11.4769L10.639 30.0255C10.4422 30.1372 10.2784 30.2985 10.1642 30.4933C10.05 30.6881 9.98936 30.9094 9.98842 31.1349V67.0168C10.0009 67.2398 10.0663 67.4567 10.1795 67.6496C10.2926 67.8425 10.4501 68.0058 10.639 68.1262L42.5135 86.3339L74.3922 67.9018C74.5813 67.7815 74.7389 67.6182 74.852 67.4253C74.9651 67.2324 75.0305 67.0155 75.0428 66.7924V30.9656C75.044 30.7389 74.9848 30.5161 74.8713 30.3197C74.7577 30.1233 74.5939 29.9604 74.3965 29.8477Z" fill="#000091"/>
<path d="M31.1282 30.9063L20.4361 49.1733L10.7474 29.7482L22.2071 23.1574L31.7512 29.8477L31.1282 30.9063ZM75.0449 66.8559V30.9528C75.0449 30.7274 74.9847 30.506 74.8703 30.3114C74.756 30.1168 74.5917 29.956 74.3944 29.8456L42.5177 11.4769" fill="#FCC63A"/>
<path d="M9.99267 66.8559L42.522 11.4769V86.3445L10.639 68.1262C10.4501 68.0058 10.2926 67.8425 10.1795 67.6496C10.0663 67.4567 10.0009 67.2398 9.98842 67.0168V31.1349L9.99267 66.8559ZM62.4414 22.9563L74.0457 29.636L64.5016 49.0081L53.0483 29.4539L62.4414 22.9563Z" fill="#0063CB"/>
<path d="M84.2063 23.9302L43.4064 0.598897C43.1317 0.462611 42.8289 0.391677 42.522 0.391677C42.215 0.391677 41.9123 0.462611 41.6375 0.598897L0.837683 23.9302C0.592094 24.093 0.388341 24.311 0.24284 24.5665C0.0973395 24.8221 0.0141588 25.1082 0 25.4016V71.9795C0.0125162 72.2748 0.0949185 72.5629 0.240491 72.8205C0.386063 73.078 0.590687 73.2977 0.837683 73.4615L41.6354 96.7928C41.9102 96.9291 42.2129 97 42.5199 97C42.8268 97 43.1296 96.9291 43.4043 96.7928L84.2063 73.4615C84.4533 73.2977 84.6579 73.078 84.8035 72.8205C84.9491 72.5629 85.0315 72.2748 85.044 71.9795V25.4016C85.0298 25.1082 84.9466 24.8221 84.8011 24.5665C84.6556 24.311 84.4519 24.093 84.2063 23.9302ZM22.9385 61.5228H23.1065C23.0172 61.5228 22.9385 61.5376 22.9385 61.6286C22.9385 61.8403 23.2595 61.6286 23.3637 61.8403C22.8585 61.8541 22.3787 62.0638 22.0264 62.4247C22.0264 62.5326 22.239 62.5326 22.3474 62.5326C22.188 62.7444 21.8669 62.6385 21.7585 62.8523C21.816 62.9096 21.8906 62.9467 21.9711 62.9582C21.8648 62.9582 21.7585 62.9582 21.7585 63.0662V63.3859C21.4906 63.3859 21.3843 63.5976 21.1696 63.7056C21.5948 64.0253 21.8648 63.7056 22.2922 63.7056C21.1696 64.129 20.2596 64.7176 19.137 65.0373C18.9244 65.0373 19.137 65.357 18.9244 65.357C19.2455 65.5687 19.407 65.2511 19.726 65.2511C18.3355 66.0493 16.8919 66.7331 15.3951 67.6477C15.2798 67.762 15.2051 67.9107 15.1825 68.0712H14.7573C14.5446 68.177 14.651 68.4438 14.4362 68.6576C14.9167 68.9773 15.4993 68.2342 15.8267 68.6576C15.933 68.6576 15.6141 68.7635 15.4015 68.7635C15.2952 68.7635 15.2952 68.9752 15.1889 68.9752H14.8614C14.6488 69.134 14.4362 69.242 14.4362 69.5596C14.344 69.5426 14.2488 69.5537 14.1631 69.5915C14.0774 69.6292 14.0051 69.6919 13.9557 69.7713C16.2392 69.7623 18.5028 69.3479 20.6402 68.5475C22.2978 67.707 23.7992 66.5907 25.0795 65.2469C25.1371 65.3041 25.1744 65.3784 25.1858 65.4586C24.873 66.3827 24.2728 67.1836 23.4721 67.7451C22.8832 68.0648 22.4559 68.5433 21.9839 68.7571C21.6685 68.9327 21.3646 69.1279 21.0739 69.3415C19.7296 69.7579 18.3496 70.0499 16.9514 70.2138L16.3029 70.3069C15.8246 70.3768 15.3483 70.453 14.8763 70.5356L10.639 68.1262C10.484 68.029 10.35 67.902 10.2448 67.7526C10.1397 67.6032 10.0655 67.4344 10.0267 67.2561C10.0976 67.2183 10.1645 67.1736 10.2265 67.1227C10.1606 67.053 10.0779 67.0012 9.98629 66.9724V65.5962C12.2143 65.2017 14.3841 64.5317 16.4454 63.6018C14.4952 62.2521 12.3033 61.2869 9.98842 60.7585V57.5509C11.1686 57.7435 12.3332 58.0209 13.4731 58.3809C14.3507 58.7019 15.1928 59.112 15.9861 59.6046C16.2979 59.9031 16.6383 60.1704 17.0024 60.4028C17.259 60.5485 17.5457 60.6339 17.8405 60.6522C18.1354 60.6706 18.4305 60.6215 18.7033 60.5086H19.4049C20.9281 60.2579 22.3527 59.5951 23.5232 58.5926C23.5232 58.6984 23.6295 58.6984 23.7358 58.6984C23.5693 59.5424 23.2617 60.3525 22.8258 61.0951C22.8322 61.2031 22.7238 61.4169 22.9385 61.5228ZM28.9277 69.0832C29.4614 68.8715 29.7782 68.4967 30.265 68.285C30.1587 68.3909 30.1587 68.6047 30.0524 68.7085C29.6535 68.9567 29.2778 69.2401 28.9298 69.5553C27.7271 70.6108 26.601 71.7499 25.56 72.964C25.0242 73.5991 24.4374 74.1877 23.8591 74.7742C23.6542 74.9649 23.4337 75.1384 23.2 75.2929L17.8273 72.223C18.5915 72.2873 19.3609 72.2495 20.115 72.1108C20.741 71.936 21.3495 71.7042 21.9328 71.4184V71.6301C23.4211 71.0437 24.5522 69.712 26.0511 69.2335C26.1043 69.2335 26.319 69.4452 26.5316 69.3394C26.9167 68.8642 27.4062 68.4834 27.9625 68.2264C28.5187 67.9695 29.1269 67.8432 29.7399 67.8573C29.7399 67.9632 29.7399 68.0691 29.8462 68.0691H29.8993C29.5783 68.3358 29.2041 68.6005 28.8363 68.8672C28.7151 68.9773 28.8214 69.0832 28.9277 69.0832ZM9.98842 56.0329V55.6391C11.09 55.3522 12.2262 55.2183 13.3647 55.2411C13.7013 55.1877 14.0443 55.1877 14.3809 55.2411C12.8808 55.2396 11.3928 55.5078 9.98842 56.0329ZM75.0471 66.8051C75.0348 67.0282 74.9694 67.2451 74.8562 67.438C74.7431 67.6309 74.5855 67.7943 74.3965 67.9145L52.9675 80.3021C50.5072 79.6009 48.0882 78.7633 45.7218 77.7933C45.3788 77.0503 45.1925 76.2452 45.1742 75.4277C45.1559 74.6102 45.3061 73.7976 45.6155 73.0402C45.7852 72.3883 46.0367 71.7602 46.3639 71.1707C46.417 71.1178 46.4702 71.0649 46.4702 71.0098C46.4843 71.0098 46.4978 71.0042 46.5077 70.9943C46.5177 70.9844 46.5233 70.9709 46.5233 70.9569C46.7595 70.5451 47.0275 70.1522 47.3249 69.7819L47.3567 69.7501L47.3993 69.7056L47.4312 69.6739C47.4312 69.6209 47.4843 69.568 47.5375 69.513C47.5906 69.405 47.6969 69.3521 47.7501 69.2462C48.1233 68.8527 48.5358 68.498 48.9811 68.1876C49.4333 68.0244 49.8984 67.8991 50.3716 67.8129C52.0958 67.9392 53.8105 68.1712 55.5061 68.5073C55.7145 68.5385 55.9147 68.6105 56.095 68.719C56.7353 68.8433 57.3965 68.8069 58.0191 68.6132C58.4251 68.5392 58.8052 68.3631 59.1234 68.1014C59.4416 67.8398 59.6873 67.5014 59.8369 67.1184C60.0241 66.7772 60.1309 66.398 60.1493 66.0096C60.1678 65.6212 60.0973 65.2337 59.9433 64.8764C59.5648 64.292 59.9156 63.9512 60.3281 63.6272L60.4727 63.5108C60.6564 63.3812 60.8216 63.2273 60.9638 63.0535C61.2317 62.5199 60.7512 62.2066 60.6427 61.7197C60.5364 61.5079 60.1622 61.6138 59.9475 61.2962C60.6959 60.9765 61.7653 60.3879 61.2848 59.4818C60.9638 59.0012 60.4833 58.148 61.0722 57.6674C61.8206 57.2439 62.89 57.3477 63.2111 56.6532C63.3161 56.2496 63.314 55.8257 63.2052 55.4231C63.0964 55.0204 62.8845 54.6528 62.5902 54.3561L62.4308 54.1275C62.2713 53.9009 62.114 53.6744 61.9822 53.45C61.6443 52.8914 61.2692 52.356 60.8596 51.8473C60.392 51.1879 60.0145 50.4695 59.737 49.711C59.416 48.9107 59.8433 48.2163 59.8433 47.416C59.8748 45.8744 59.6396 44.3389 59.1481 42.8768C58.8802 42.1294 58.7739 41.3291 58.4529 40.6347C58.4124 40.1884 58.2458 39.7626 57.9724 39.4067C57.9195 39.2985 57.8921 39.1798 57.8921 39.0595C57.8921 38.9392 57.9195 38.8205 57.9724 38.7123C58.4083 38.4063 58.8199 38.0673 59.2034 37.6982C59.3219 37.4393 59.3442 37.1469 59.2663 36.8731C59.1884 36.5993 59.0154 36.362 58.7781 36.2034C58.0829 35.8838 58.1403 36.8979 57.6556 37.1117H57.3345C57.2282 36.845 57.4408 36.737 57.6556 36.5253C57.6556 36.4194 57.6556 36.2056 57.5493 36.2056C57.124 36.2056 56.7477 36.0976 56.6393 35.8859C55.6146 34.6142 54.2395 33.668 52.6826 33.1632C53.0823 33.2854 53.4959 33.3566 53.9136 33.3749C54.6314 33.5261 55.3786 33.4521 56.0525 33.1632C56.5351 33.0023 56.6414 32.1491 56.854 31.6685C56.8972 31.4358 56.8909 31.1967 56.8356 30.9666C56.7803 30.7365 56.6772 30.5205 56.533 30.3325C56.0501 29.6335 55.3838 29.0798 54.6067 28.7319C54.2325 28.571 53.6436 28.2513 53.1631 27.9846C52.9995 27.8699 52.8196 27.78 52.6295 27.7178C46.3256 24.5738 33.3479 27.2944 32.3592 27.7178H32.3401C31.4291 27.9809 30.541 28.3172 29.6846 28.7235C28.5055 29.1594 27.4407 29.8553 26.5699 30.7591C25.6992 31.6629 25.045 32.7511 24.6564 33.9423C23.4424 34.7364 22.4639 35.8395 21.8223 37.1371C20.9123 38.8309 19.5771 40.3319 19.7897 42.248C20.0023 43.8994 20.3787 45.3899 20.6997 47.0942C20.791 47.6702 20.9333 48.237 21.1249 48.7879C21.3375 49.3723 21.1249 50.1196 21.446 50.5981C21.6054 50.9178 21.4991 51.2904 21.9286 51.5043V51.9277C22.0349 52.0336 22.0349 52.1394 22.2496 52.1394V52.5629C23.1738 53.4595 23.9661 54.4816 24.6032 55.5989C24.8158 56.1832 23.587 55.9186 23.115 55.7048C22.2315 55.1321 21.4231 54.4522 20.7082 53.6807C20.6497 53.7375 20.6116 53.8119 20.5998 53.8925C21.025 54.6377 22.526 55.5438 21.7224 56.0223C21.2971 56.234 20.8124 55.7026 20.385 56.1303C20.2787 56.2891 20.385 56.5029 20.385 56.7146C19.7961 56.2912 19.1562 56.5029 18.5672 56.2912C18.142 56.1854 18.0315 55.3872 17.551 55.3872C16.2828 55.079 14.9969 54.8478 13.7006 54.6949C12.4757 54.5119 11.2412 54.3995 10.0033 54.3582V31.1349C10.0042 30.9094 10.0649 30.6881 10.1791 30.4933C10.2933 30.2985 10.4571 30.1372 10.6539 30.0255L42.5177 11.4769L74.3965 29.8477C74.5934 29.9592 74.7573 30.1205 74.8715 30.3153C74.9858 30.5101 75.0463 30.7315 75.0471 30.9571V66.8051ZM58.1361 49.3151C58.0718 49.4146 57.9828 49.4959 57.8778 49.5511C57.7728 49.6064 57.6552 49.6338 57.5365 49.6306C57.3235 49.8093 57.1232 50.0024 56.9369 50.2086C57.1496 50.2086 56.937 50.524 57.1496 50.524C56.7137 50.9962 57.3133 51.9933 56.7137 52.2029C55.9289 52.4125 55.1024 52.4125 54.3176 52.2029C54.4342 52.178 54.5534 52.1666 54.6726 52.1691H54.8534C54.9867 52.1851 55.1219 52.168 55.247 52.1192C55.372 52.0704 55.4829 51.9915 55.5699 51.8896V51.4662C55.5699 51.3603 55.4614 51.3603 55.3573 51.3603C55.3014 51.4198 55.2259 51.4573 55.1446 51.4662C55.1394 51.3709 55.1053 51.2795 55.0469 51.2039C54.9884 51.1283 54.9084 51.0721 54.8172 51.0427C54.5346 51.0803 54.247 51.0471 53.9805 50.9462C53.7139 50.8453 53.4769 50.6798 53.2907 50.4647C53.579 50.3268 53.9055 50.2895 54.2177 50.3589C54.4898 50.3589 54.3814 49.8868 54.7088 49.6772H55.0362C55.6889 48.8896 56.888 48.68 57.107 47.8924C57.107 47.6807 56.5075 47.6807 56.0716 47.5769C55.4889 47.5058 54.898 47.5417 54.3282 47.6828C53.5633 47.7879 52.8133 47.9819 52.0937 48.2608C52.6896 47.8252 53.3523 47.4885 54.0561 47.2636C54.5501 47.0741 55.0613 46.9323 55.5826 46.8401L55.8633 46.7851L56.146 46.7279C56.5317 46.6132 56.9425 46.6132 57.3282 46.7279C57.8193 46.9397 58.6357 46.9396 58.7441 47.253C58.9567 47.831 58.4167 48.4069 57.8193 48.8282C57.6981 48.9997 58.1361 49.114 58.1361 49.3151Z" fill="white"/>
<path d="M53.1525 4.23435C53.1525 1.89578 55.0563 0 57.4047 0H111.748C114.096 0 116 1.89578 116 4.23435V23.9283C116 26.2669 114.096 28.1627 111.748 28.1627H57.4047C55.0563 28.1627 53.1525 26.2669 53.1525 23.9283V4.23435Z" fill="#FCC63A"/>
<path d="M58.5995 23.6438V4.90315H64.8099C66.8711 4.90315 68.4932 5.4029 69.6762 6.4024C70.877 7.4019 71.4775 8.76729 71.4775 10.4986C71.4775 12.212 70.877 13.5685 69.6762 14.568C68.4932 15.5675 66.8711 16.0672 64.8099 16.0672H62.4172V23.6438H58.5995ZM64.9713 8.1426H62.4172V12.8278H64.9713C65.7778 12.8278 66.4051 12.6225 66.8532 12.212C67.3192 11.8015 67.5522 11.2125 67.5522 10.445C67.5522 9.7311 67.3192 9.16888 66.8532 8.75837C66.4051 8.34786 65.7778 8.1426 64.9713 8.1426Z" fill="#161616"/>
<path d="M74.9039 23.6438V4.90315H80.6573C82.7185 4.90315 84.3495 5.4029 85.5504 6.4024C86.7513 7.4019 87.3517 8.76729 87.3517 10.4986C87.3517 11.623 87.0829 12.6047 86.5452 13.4435C86.0254 14.2646 85.2905 14.8982 84.3406 15.3444L90.2553 23.6438H85.6848L80.6842 16.0672H78.7216V23.6438H74.9039ZM80.8724 8.1426H78.7216V12.8278H80.8724C81.6789 12.8278 82.3063 12.6225 82.7544 12.212C83.2024 11.8015 83.4265 11.2125 83.4265 10.445C83.4265 9.7311 83.2024 9.16888 82.7544 8.75837C82.3063 8.34786 81.6789 8.1426 80.8724 8.1426Z" fill="#161616"/>
<path d="M101.093 4.3677C102.563 4.3677 103.907 4.63542 105.126 5.17087C106.363 5.70632 107.42 6.42025 108.298 7.31266C109.176 8.20507 109.858 9.25812 110.342 10.4718C110.825 11.6676 111.067 12.9349 111.067 14.2735C111.067 15.6121 110.825 16.8882 110.342 18.1019C109.858 19.2978 109.176 20.3419 108.298 21.2343C107.42 22.1267 106.363 22.8406 105.126 23.3761C103.907 23.9115 102.563 24.1793 101.093 24.1793C99.6233 24.1793 98.2701 23.9115 97.0333 23.3761C95.7966 22.8406 94.7391 22.1267 93.8609 21.2343C92.9826 20.3419 92.3015 19.2978 91.8176 18.1019C91.3337 16.8882 91.0917 15.6121 91.0917 14.2735C91.0917 12.9349 91.3337 11.6676 91.8176 10.4718C92.3015 9.25812 92.9826 8.20507 93.8609 7.31266C94.7391 6.42025 95.7966 5.70632 97.0333 5.17087C98.2701 4.63542 99.6233 4.3677 101.093 4.3677ZM101.093 20.6185C101.971 20.6185 102.778 20.4579 103.513 20.1366C104.265 19.7975 104.902 19.3513 105.422 18.798C105.959 18.2269 106.38 17.5576 106.685 16.7901C106.99 16.0048 107.142 15.1659 107.142 14.2735C107.142 13.3811 106.99 12.5511 106.685 11.7836C106.38 10.9983 105.959 10.329 105.422 9.77572C104.902 9.20457 104.265 8.75837 103.513 8.4371C102.778 8.09798 101.971 7.92843 101.093 7.92843C100.215 7.92843 99.3992 8.09798 98.6464 8.4371C97.8937 8.75837 97.2484 9.20457 96.7107 9.77572C96.1909 10.329 95.7787 10.9983 95.474 11.7836C95.1693 12.5511 95.0169 13.3811 95.0169 14.2735C95.0169 15.1659 95.1693 16.0048 95.474 16.7901C95.7787 17.5576 96.1909 18.2269 96.7107 18.798C97.2484 19.3513 97.8937 19.7975 98.6464 20.1366C99.3992 20.4579 100.215 20.6185 101.093 20.6185Z" fill="#161616"/>
</svg>
